# xmcd
#
# Track frame offsets: 
#        150
#        18370
#        38598
#        57205
#        74294
#        104909
#        129644
#        147833
#        167561
#        185601
#        214810
#        233634
#        242323
#        258012
#
# Disc length: 3848 seconds
#
# Revision: 0
# Processed by: cddbd v1.5.2PL0 Copyright (c) Steve Scherf et al.
# Submitted via: ExactAudioCopyFreeDBPlugin 1.0
#
DISCID=bd0f060e
DTITLE=Flaming Mudcats, The - Mistress
DYEAR=2014
DGENRE=New Zealand: Country/Blues
TTITLE0=My Baby Rocks
TTITLE1=Can't Take it With You
TTITLE2=Breaking Up Somebody's Home
TTITLE3=Big Bad Wolf
TTITLE4=Drinking My Life Away
TTITLE5=Lately
TTITLE6=Itchin' and Scratchin'
TTITLE7=Why'd You Break My Heart?
TTITLE8=Blue Nun
TTITLE9=What's Good for the Goose
TTITLE10=Easy to Please
TTITLE11=Superman
TTITLE12=Heavy
TTITLE13=Boogie Tonight
EXTD=
EXTT0=
EXTT1=
EXTT2=
EXTT3=
EXTT4=
EXTT5=
EXTT6=
EXTT7=
EXTT8=
EXTT9=
EXTT10=
EXTT11=
EXTT12=
EXTT13=
PLAYORDER=
